<svg width="189" height="225" viewBox="0 0 189 225" fill="none" xmlns="http://www.w3.org/2000/svg">
<g filter="url(#filter0_d_2_3188)">
<path fill-rule="evenodd" clip-rule="evenodd" d="M50.3746 49.2554H140.341C148.623 49.2554 155.336 55.9684 155.336 64.2502V176.709C155.336 184.991 148.623 191.704 140.341 191.704H50.3746C42.0927 191.704 35.3796 184.991 35.3796 176.709V64.2502C35.3796 55.9694 42.0927 49.2554 50.3746 49.2554Z" fill="#3AD9F2"/>
</g>
<path fill-rule="evenodd" clip-rule="evenodd" d="M138.145 156.414L120.046 174.513C118.639 175.92 116.732 176.709 114.744 176.709H57.871C53.7311 176.709 50.3745 173.353 50.3745 169.213V71.7481C50.3745 67.6072 53.7311 64.2505 57.871 64.2505H132.845C136.984 64.2505 140.341 67.6072 140.341 71.7481V151.113C140.341 153.1 139.552 155.009 138.145 156.414V156.414Z" fill="#E4E7FB"/>
<path fill-rule="evenodd" clip-rule="evenodd" d="M65.3686 64.2505H125.347C129.487 64.2505 132.844 67.6072 132.844 71.7481C132.844 75.889 129.487 79.2454 125.347 79.2454H65.3686C61.2277 79.2454 57.8711 75.889 57.8711 71.7481C57.8711 67.6072 61.2277 64.2505 65.3686 64.2505Z" fill="#C2CBFF"/>
<path fill-rule="evenodd" clip-rule="evenodd" d="M80.3633 101.737C80.3633 105.878 77.0067 109.234 72.8657 109.234C68.7248 109.234 65.3684 105.878 65.3684 101.737C65.3684 97.597 68.7248 94.2393 72.8657 94.2393C77.0067 94.2393 80.3633 97.597 80.3633 101.737Z" fill="#FF75E3"/>
<path fill-rule="evenodd" clip-rule="evenodd" d="M95.3574 94.2393H117.85C121.991 94.2393 125.347 97.5959 125.347 101.737C125.347 105.878 121.991 109.234 117.85 109.234H95.3574C91.2175 109.234 87.8608 105.878 87.8608 101.737C87.8608 97.597 91.2175 94.2393 95.3574 94.2393Z" fill="#33527D"/>
<path fill-rule="evenodd" clip-rule="evenodd" d="M95.3574 116.731H117.85C121.991 116.731 125.347 120.088 125.347 124.229C125.347 128.369 121.991 131.725 117.85 131.725H95.3574C91.2175 131.725 87.8608 128.369 87.8608 124.229C87.8608 120.088 91.2175 116.731 95.3574 116.731Z" fill="#33527D"/>
<path fill-rule="evenodd" clip-rule="evenodd" d="M95.3574 139.223H117.85C121.991 139.223 125.347 142.58 125.347 146.721C125.347 150.86 121.991 154.218 117.85 154.218H95.3574C91.2175 154.218 87.8608 150.86 87.8608 146.721C87.8608 142.58 91.2175 139.223 95.3574 139.223Z" fill="#33527D"/>
<path fill-rule="evenodd" clip-rule="evenodd" d="M80.3633 124.229C80.3633 128.369 77.0067 131.725 72.8657 131.725C68.7248 131.725 65.3684 128.369 65.3684 124.229C65.3684 120.088 68.7248 116.731 72.8657 116.731C77.0067 116.731 80.3633 120.088 80.3633 124.229Z" fill="#079CFF"/>
<path fill-rule="evenodd" clip-rule="evenodd" d="M80.3633 146.721C80.3633 150.861 77.0067 154.218 72.8657 154.218C68.7248 154.218 65.3684 150.861 65.3684 146.721C65.3684 142.58 68.7248 139.223 72.8657 139.223C77.0067 139.223 80.3633 142.58 80.3633 146.721Z" fill="#FFBE00"/>
<path fill-rule="evenodd" clip-rule="evenodd" d="M95.3575 56.753C91.2176 56.753 87.8598 53.3964 87.8598 49.2555C87.8598 45.1156 91.2165 41.7581 95.3575 41.7581C99.4984 41.7581 102.855 45.1146 102.855 49.2555C102.855 53.3964 99.4984 56.753 95.3575 56.753ZM121.599 49.2555H117.85C117.85 36.8338 107.78 26.7642 95.3575 26.7642C82.9357 26.7642 72.8659 36.8338 72.8659 49.2555H69.1174C62.9065 49.2555 57.8711 54.291 57.8711 60.5019C57.8711 66.7127 62.9065 71.748 69.1174 71.748H121.599C127.809 71.748 132.845 66.7127 132.845 60.5019C132.845 54.291 127.809 49.2555 121.599 49.2555H121.599Z" fill="#7D8FAC"/>
<path d="M170.492 129.129C170.492 126.166 172.895 123.763 175.858 123.763C178.822 123.763 181.224 126.166 181.224 129.129C181.224 132.093 178.822 134.495 175.858 134.495C172.895 134.495 170.492 132.093 170.492 129.129Z" stroke="#32CBF0" stroke-width="4"/>
<path d="M166.209 15.9494C170.35 15.9494 173.707 19.3065 173.707 23.4477C173.707 27.5888 170.35 30.9459 166.209 30.9459C162.068 30.9459 158.711 27.5888 158.711 23.4477C158.711 19.3065 162.068 15.9494 166.209 15.9494Z" stroke="#FFBE00" stroke-width="4"/>
<path opacity="0.3" d="M21.5602 138.545C25.6035 138.545 28.8832 141.825 28.8832 145.873C28.8832 149.921 25.6035 153.201 21.5602 153.201C17.5168 153.201 14.2372 149.921 14.2372 145.873C14.2372 141.825 17.5168 138.545 21.5602 138.545Z" stroke="#FF75E3" stroke-width="4"/>
<path fill-rule="evenodd" clip-rule="evenodd" d="M176.35 84.5132C176.35 81.8002 178.547 79.6008 181.258 79.6008C183.968 79.6008 186.165 81.8002 186.165 84.5132C186.165 87.2262 183.968 89.4256 181.258 89.4256C178.547 89.4256 176.35 87.2262 176.35 84.5132Z" fill="#FF75E3"/>
<path fill-rule="evenodd" clip-rule="evenodd" d="M6.37928 97.382C6.37928 94.1286 9.0167 91.4912 12.2701 91.4912C15.5235 91.4912 18.161 94.1286 18.161 97.382C18.161 100.635 15.5235 103.273 12.2701 103.273C9.0167 103.273 6.37928 100.635 6.37928 97.382Z" fill="#3AD9F2"/>
<path fill-rule="evenodd" clip-rule="evenodd" d="M34.8099 44.6869C32.4238 46.0095 29.4064 45.1441 28.0837 42.7579L25.8489 38.7262C24.8514 36.9267 25.5038 34.6514 27.3031 33.654L29.4313 32.4743C31.2307 31.4769 33.506 32.1295 34.5034 33.9289L36.7382 37.9606C38.0611 40.3469 37.196 43.3643 34.8099 44.6869Z" fill="#FF52A8"/>
<path fill-rule="evenodd" clip-rule="evenodd" d="M21.0488 19.5819L20.8118 19.7132C19.0127 20.7105 16.7383 20.0589 15.7416 18.2608L12.9846 13.2871C11.9517 11.4237 12.6282 9.06692 14.4926 8.03346C16.3569 7.00006 18.7142 7.67523 19.7471 9.53867L22.504 14.5123C23.5007 16.3104 22.8479 18.5847 21.0488 19.5819Z" fill="#FF52A8"/>
<path fill-rule="evenodd" clip-rule="evenodd" d="M17.6129 12.4454L16.5802 13.0179C10.8005 16.2216 8.70428 23.529 11.9073 29.3073L17.2961 39.029C17.6364 39.643 18.4103 39.8648 19.0244 39.5244L38.7964 28.5646C39.4106 28.2242 39.6326 27.4504 39.2922 26.8363L33.9034 17.1147C30.7005 11.3363 23.3925 9.24174 17.6129 12.4454L17.6129 12.4454Z" fill="#FEEB70"/>
<g filter="url(#filter1_d_2_3188)">
<path fill-rule="evenodd" clip-rule="evenodd" d="M42.7669 34.1346L21.6444 45.843C19.4786 47.0435 16.7392 46.257 15.5378 44.0897L15.3657 43.7791C14.1643 41.6118 14.9491 38.872 17.1149 37.6715L38.2374 25.963C40.4033 24.7625 43.1427 25.5489 44.344 27.7161L44.5162 28.0267C45.7174 30.1941 44.9327 32.9341 42.7669 34.1346Z" fill="#FEF7CB"/>
</g>
<g filter="url(#filter2_d_2_3188)">
<path fill-rule="evenodd" clip-rule="evenodd" d="M140.379 201C129.334 201 120.379 192.046 120.379 181V172C120.379 160.954 129.334 152 140.379 152H148.379C159.425 152 168.379 160.954 168.379 172V181C168.379 192.046 159.425 201 148.379 201H140.379Z" fill="url(#paint0_linear_2_3188)"/>
</g>
<g filter="url(#filter3_d_2_3188)">
<path fill-rule="evenodd" clip-rule="evenodd" d="M141.369 186.98C140.526 186.98 139.717 186.645 139.121 186.049L132.311 179.238C131.069 177.997 131.069 175.984 132.311 174.742C133.552 173.5 135.565 173.5 136.807 174.742L141.369 179.305L152.743 167.931C153.984 166.69 155.997 166.69 157.239 167.931C158.481 169.173 158.481 171.186 157.239 172.427L143.617 186.049C143.021 186.645 142.212 186.98 141.369 186.98H141.369Z" fill="#E8EBFF"/>
</g>
<defs>
<filter id="filter0_d_2_3188" x="2.37964" y="16.2554" width="185.956" height="208.449" filterUnits="userSpaceOnUse" color-interpolation-filters="sRGB">
<feFlood flood-opacity="0" result="BackgroundImageFix"/>
<feColorMatrix in="SourceAlpha" type="matrix" values="0 0 0 0 0 0 0 0 0 0 0 0 0 0 0 0 0 0 127 0" result="hardAlpha"/>
<feOffset/>
<feGaussianBlur stdDeviation="16.5"/>
<feColorMatrix type="matrix" values="0 0 0 0 0.729412 0 0 0 0 0.858824 0 0 0 0 0.882353 0 0 0 0.9 0"/>
<feBlend mode="normal" in2="BackgroundImageFix" result="effect1_dropShadow_2_3188"/>
<feBlend mode="normal" in="SourceGraphic" in2="effect1_dropShadow_2_3188" result="shape"/>
</filter>
<filter id="filter1_d_2_3188" x="7.34831" y="22.0247" width="42.2764" height="33.0039" filterUnits="userSpaceOnUse" color-interpolation-filters="sRGB">
<feFlood flood-opacity="0" result="BackgroundImageFix"/>
<feColorMatrix in="SourceAlpha" type="matrix" values="0 0 0 0 0 0 0 0 0 0 0 0 0 0 0 0 0 0 127 0" result="hardAlpha"/>
<feOffset dx="-1.45443" dy="2.62386"/>
<feGaussianBlur stdDeviation="3"/>
<feColorMatrix type="matrix" values="0 0 0 0 0.768627 0 0 0 0 0.576471 0 0 0 0 0.2 0 0 0 0.16 0"/>
<feBlend mode="normal" in2="BackgroundImageFix" result="effect1_dropShadow_2_3188"/>
<feBlend mode="normal" in="SourceGraphic" in2="effect1_dropShadow_2_3188" result="shape"/>
</filter>
<filter id="filter2_d_2_3188" x="110.379" y="145" width="67.9999" height="69" filterUnits="userSpaceOnUse" color-interpolation-filters="sRGB">
<feFlood flood-opacity="0" result="BackgroundImageFix"/>
<feColorMatrix in="SourceAlpha" type="matrix" values="0 0 0 0 0 0 0 0 0 0 0 0 0 0 0 0 0 0 127 0" result="hardAlpha"/>
<feOffset dy="3"/>
<feGaussianBlur stdDeviation="5"/>
<feColorMatrix type="matrix" values="0 0 0 0 0.956863 0 0 0 0 0.294118 0 0 0 0 0.737255 0 0 0 0.43 0"/>
<feBlend mode="normal" in2="BackgroundImageFix" result="effect1_dropShadow_2_3188"/>
<feBlend mode="normal" in="SourceGraphic" in2="effect1_dropShadow_2_3188" result="shape"/>
</filter>
<filter id="filter3_d_2_3188" x="125.379" y="164" width="38.7911" height="31.9805" filterUnits="userSpaceOnUse" color-interpolation-filters="sRGB">
<feFlood flood-opacity="0" result="BackgroundImageFix"/>
<feColorMatrix in="SourceAlpha" type="matrix" values="0 0 0 0 0 0 0 0 0 0 0 0 0 0 0 0 0 0 127 0" result="hardAlpha"/>
<feOffset dy="3"/>
<feGaussianBlur stdDeviation="3"/>
<feColorMatrix type="matrix" values="0 0 0 0 0 0 0 0 0 0 0 0 0 0 0 0 0 0 0.16 0"/>
<feBlend mode="normal" in2="BackgroundImageFix" result="effect1_dropShadow_2_3188"/>
<feBlend mode="normal" in="SourceGraphic" in2="effect1_dropShadow_2_3188" result="shape"/>
</filter>
<linearGradient id="paint0_linear_2_3188" x1="108.978" y1="173.655" x2="143.862" y2="211.94" gradientUnits="userSpaceOnUse">
<stop stop-color="#FB5EC7"/>
<stop offset="1" stop-color="#DF0F9A"/>
</linearGradient>
</defs>
</svg>
